<svg width="20" height="20" viewBox="0 0 20 20" fill="none" xmlns="http://www.w3.org/2000/svg">
<path d="M5 3.75C4.33696 3.75 3.70107 4.01339 3.23223 4.48223C2.76339 4.95107 2.5 5.58696 2.5 6.25V6.50125L10 10.54L17.5 6.5025V6.25C17.5 5.58696 17.2366 4.95107 16.7678 4.48223C16.2989 4.01339 15.663 3.75 15 3.75H5Z" fill="#4F4F4F"/>
<path d="M17.5 7.9209L10.2963 11.7996C10.2052 11.8487 10.1034 11.8743 10 11.8743C9.89659 11.8743 9.7948 11.8487 9.70375 11.7996L2.5 7.9209V13.7496C2.5 14.4127 2.76339 15.0486 3.23223 15.5174C3.70107 15.9863 4.33696 16.2496 5 16.2496H15C15.663 16.2496 16.2989 15.9863 16.7678 15.5174C17.2366 15.0486 17.5 14.4127 17.5 13.7496V7.9209Z" fill="#4F4F4F"/>
</svg>
