<svg width="20" height="20" viewBox="0 0 20 20" fill="none" xmlns="http://www.w3.org/2000/svg">
<path d="M17.0727 14.2832L13.6852 11.2032C13.5251 11.0577 13.3147 10.98 13.0984 10.9867C12.8821 10.9934 12.6769 11.0839 12.5261 11.239L10.5319 13.2899C10.0519 13.1982 9.0869 12.8974 8.09357 11.9065C7.10023 10.9124 6.7994 9.94487 6.71024 9.46821L8.7594 7.47321C8.91474 7.32248 9.00535 7.11723 9.01204 6.90088C9.01872 6.68453 8.94097 6.47407 8.79524 6.31404L5.71607 2.92737C5.57027 2.76684 5.36763 2.66946 5.1512 2.65592C4.93476 2.64239 4.72157 2.71376 4.5569 2.85487L2.74857 4.40571C2.60449 4.5503 2.5185 4.74275 2.5069 4.94654C2.4944 5.15487 2.25607 10.0899 6.08274 13.9182C9.42107 17.2557 13.6027 17.4999 14.7544 17.4999C14.9227 17.4999 15.0261 17.4949 15.0536 17.4932C15.2573 17.4818 15.4497 17.3954 15.5936 17.2507L17.1436 15.4415C17.2852 15.2774 17.3571 15.0644 17.3439 14.848C17.3307 14.6315 17.2334 14.4289 17.0727 14.2832Z" fill="#4F4F4F"/>
</svg>
